<?xml version="1.0" encoding="utf-8"?>
<!-- Generator: Adobe Illustrator 23.0.3, SVG Export Plug-In . SVG Version: 6.00 Build 0)  -->
<svg version="1.1" id="Layer_1" xmlns="http://www.w3.org/2000/svg" xmlns:xlink="http://www.w3.org/1999/xlink" x="0px" y="0px"
	 viewBox="0 0 462.1 151.7" style="enable-background:new 0 0 462.1 151.7;" xml:space="preserve">
<style type="text/css">
	.st0{fill:#2488C9;stroke:#2488C9;stroke-miterlimit:10;}
	.st1{fill:#231F20;}
</style>
<title>animalalliance-logo</title>
<path class="st0" d="M190.7,137.1c19.8-15.3,31.4-37.6,31.4-60.9c0-41.7-33.9-75.5-75.6-75.6c-7.3,0-14.9,0-21.6,3.2
	c3.5,2.1,5.9,4.8,8.8,7.2c4.9-1.1,7.7-0.9,12.8-0.9c36.5,0,66.1,29.6,66.1,66.1c0,22-12.6,43.8-32.9,57.1c-2,1.1-3.9,2.4-5.7,3.7
	c11.2,12.9,31.4,14.5,47.2,14.1C202,147.5,190.7,137.1,190.7,137.1z"/>
<path class="st0" d="M146.5,151c-10.1,0.6-35.7-1.6-43.6-12.9c2.3-1.9,4.8-3.5,4.8-3.5c0.3-0.2,34.7-25.9,34.7-56.7
	c0.4-36.5-28.8-66.5-65.3-67s-66.5,28.8-67,65.3c0,0.5,0,1.1,0,1.6c0,36.5,36,59.1,55,63.9c5.8,4.3,7.9,5.4,16,9.4
	c-41,0-80.5-31.7-80.5-73.4c0-41.7,33.8-75.6,75.6-75.6c41.7,0,75.6,33.8,75.6,75.6c0,0,0,0,0,0c0,28.1-23.1,51.2-33.5,60.2
	C118.4,138.1,127.2,146.9,146.5,151z"/>
<path class="st1" d="M295,59.1h6.3V90h-6.1l-0.3-5c-2.1,4-6.8,5.8-10.7,5.8c-9,0.1-15.9-5.8-15.9-16.3c0-10.3,7.1-16.1,16-16.1
	c4.4,0,8.6,2.1,10.5,5.6L295,59.1z M274.7,74.6c0,6.4,4.5,10.3,10,10.3c13.4,0,13.4-20.5,0-20.5C279.3,64.3,274.7,68.2,274.7,74.6z"
	/>
<path class="st1" d="M332.4,90V73.5c0-5.3-3-8.9-8.3-8.9c-5.1,0-8.6,4.2-8.6,9.3V90h-6.5V59h5.9l0.4,4.5c2.5-3.1,6.4-5,10.4-5
	c7.5,0,13.3,5.3,13.3,14.8V90L332.4,90z"/>
<path class="st1" d="M353.3,50c0,5.3-8,5.3-8,0S353.3,44.8,353.3,50z M346,59v31.1h6.5v-31L346,59z"/>
<path class="st1" d="M381.2,90V73c0-4.6-2.6-8.4-7.2-8.4s-7.5,3.8-7.5,8.4v17H360V59h6l0.4,4.1c1.8-3.4,5.4-4.6,8.7-4.6
	c4,0,8,1.6,9.7,6.2c2-4,6.2-6.4,10.6-6.2c8.5,0,13.1,5.4,13.1,14.3V90H402V72.9c0-4.6-2.3-8.2-6.8-8.2s-7.5,3.8-7.5,8.3v17H381.2z"
	/>
<path class="st1" d="M440.9,59.1h6.3V90H441l-0.3-5c-2.1,4-6.8,5.8-10.7,5.8c-9,0.1-15.9-5.8-15.9-16.3c0-10.3,7.1-16.1,16-16.1
	c4.4,0,8.6,2.1,10.5,5.6L440.9,59.1z M420.7,74.6c0,6.4,4.5,10.3,10,10.3c13.4,0,13.4-20.5,0-20.5C425.2,64.3,420.7,68.2,420.7,74.6
	z"/>
<path class="st1" d="M461.4,46.2V90h-6.5V50L461.4,46.2z"/>
<path class="st1" d="M269.6,119.9h6.3v31h-6.1l-0.3-5c-2.1,3.9-6.8,5.8-10.7,5.8c-9,0.1-15.9-5.8-15.9-16.3c0-10.4,7.1-16.1,16-16.1
	c4.4,0,8.6,2.1,10.5,5.6L269.6,119.9z M249.4,135.3c0,6.4,4.5,10.3,10,10.3c13.4,0,13.4-20.5,0-20.5
	C253.9,125.1,249.4,129,249.4,135.3L249.4,135.3z"/>
<path class="st1" d="M290.1,107v43.9h-6.5l-0.8-40L290.1,107z"/>
<path class="st1" d="M304.3,107v43.9h-6.5v-40L304.3,107z"/>
<path class="st1" d="M319.3,110.8c0,5.3-8,5.3-8,0S319.3,105.5,319.3,110.8z M312,119.8v31.1h6.5v-31.1L312,119.8z"/>
<path class="st1" d="M350.9,119.9h6.3v31h-6.1l-0.3-5c-2.1,3.9-6.8,5.8-10.7,5.8c-9,0.1-15.9-5.8-15.9-16.3c0-10.4,7.1-16.1,16-16.1
	c4.4,0,8.6,2.1,10.5,5.6L350.9,119.9z M330.7,135.3c0,6.4,4.5,10.3,10,10.3c13.4,0,13.4-20.5,0-20.5
	C335.2,125.1,330.7,129,330.7,135.3L330.7,135.3z"/>
<path class="st1" d="M388.3,150.9v-16.6c0-5.3-3-8.9-8.4-8.9c-5.1,0-8.6,4.2-8.6,9.3v16.2h-6.5v-31h5.9l0.4,4.5
	c2.5-3.1,6.4-5,10.4-5c7.5,0,13.3,5.3,13.3,14.8v16.7H388.3z"/>
<path class="st1" d="M428.3,146.8c-3.1,3.2-7.3,4.9-11.7,4.8c-8.9,0-16.3-5.6-16.3-16.2s7.3-16.2,16.3-16.2
	c4.2-0.1,8.2,1.6,11.2,4.6l-4.1,4.3c-1.9-1.8-4.4-2.8-7-2.8c-5.6,0-9.9,3.9-9.9,10.1c0,6.5,4.5,10,9.9,10c2.7,0.1,5.4-1,7.3-2.9
	L428.3,146.8z"/>
<path class="st1" d="M436.9,137.8c0.6,4.7,4.5,7.8,10.1,7.8c3.1,0,7.1-1.2,9-3.3l4.2,4.1c-3.2,3.5-8.5,5.3-13.3,5.3
	c-10.2,0-16.7-6.5-16.7-16.4c0-9.4,6.6-16.1,16.2-16.1c10,0,16.7,6.1,15.5,18.7L436.9,137.8z M455.7,132.3c-0.4-4.9-4-7.5-9.2-7.5
	c-4.7,0-8.6,2.6-9.6,7.5H455.7z"/>
</svg>
